<svg width="80" height="40" viewBox="0 0 80 40" fill="none" xmlns="http://www.w3.org/2000/svg">
<path d="M75.8184 40C78.0275 40 79.8391 38.2047 79.6186 36.0066C79.229 32.1237 78.2725 28.3113 76.7736 24.6927C74.7634 19.8396 71.817 15.4301 68.1027 11.7157C64.3883 8.00138 59.9787 5.05501 55.1257 3.04482C50.2727 1.03463 45.0713 -2.2961e-07 39.8184 0C34.5655 2.2961e-07 29.3641 1.03463 24.511 3.04482C19.658 5.05501 15.2485 8.00139 11.5341 11.7157C7.81977 15.4301 4.87339 19.8396 2.86321 24.6927C1.36431 28.3113 0.407823 32.1237 0.0182224 36.0066C-0.202326 38.2047 1.60925 40 3.81839 40C6.02753 40 7.79264 38.2023 8.06806 36.0104C8.42386 33.1789 9.15758 30.4017 10.2542 27.7541C11.8624 23.8717 14.2195 20.3441 17.191 17.3726C20.1624 14.4011 23.6901 12.044 27.5725 10.4359C31.4549 8.8277 35.6161 8 39.8184 8C44.0207 8 48.1818 8.8277 52.0643 10.4359C55.9467 12.044 59.4743 14.4011 62.4458 17.3726C65.4173 20.3441 67.7744 23.8717 69.3825 27.7541C70.4792 30.4017 71.2129 33.1789 71.5687 36.0104C71.8441 38.2023 73.6093 40 75.8184 40Z" fill="#36363A"/>
<path d="M3.81839 40C1.60925 40 -0.202326 38.2047 0.0182224 36.0066C0.935215 26.8646 4.97989 18.27 11.5341 11.7157C18.0883 5.16151 26.6829 1.11671 35.8249 0.199722C38.023 -0.0207595 39.8184 1.79086 39.8184 4C39.8184 6.20914 38.0206 7.97418 35.8287 8.24957C28.8128 9.13102 22.2439 12.3196 17.191 17.3726C12.138 22.4256 8.94952 28.9945 8.06806 36.0104C7.79264 38.2023 6.02753 40 3.81839 40Z" fill="#61BF5A"/>
</svg>
